<?xml version="1.0" encoding="utf-8"?>
<!DOCTYPE svg PUBLIC "-//W3C//DTD SVG 1.1//EN" "http://www.w3.org/Graphics/SVG/1.1/DTD/svg11.dtd">
<svg version="1.1" xmlns="http://www.w3.org/2000/svg" viewBox="0 0 16 16" preserveAspectRatio="xMidYMid meet">
 <g fill="#000000">
  <path d="M131 780.5 c-17.4 -3 -32 -8.7 -45.9 -17.9 -8.9 -6 -23.8 -21.5 -28.4 -29.6 -14.5 -26 -18.2 -63 -10.3 -102.1 3.2 -15.7 7.5 -27.7 16.1 -45.4 7.8 -16 13.9 -25.6 37.3 -58.3 26.9 -37.7 39.4 -59.2 56.5 -97.2 17.1 -37.9 25.1 -51 42.7 -69.4 15.8 -16.6 34.9 -28.2 54.4 -33.1 15.5 -3.9 39.6 -3.4 49.8 1.1 l3.7 1.6 8.4 -6.1 c20.4 -14.7 48.2 -28.8 72.5 -36.7 30 -9.8 53.4 -14.6 84.9 -17.4 18 -1.7 77.7 -0.7 93.3 1.4 56 7.7 106 26.3 144.1 53.8 l6.6 4.8 5.9 -2.1 c8.5 -3.1 31.7 -3.8 43.5 -1.4 28.9 5.8 58.9 28.1 78.2 58 4.9 7.6 19.3 35.8 22.5 44 2.7 6.9 20.3 42.1 25.4 50.9 8.3 14.2 18.3 29.2 33.3 50.1 24.6 34.2 30.3 43.4 39.5 63.7 9.1 20 13.8 38.3 16.1 63.1 2.7 29.6 -3.8 61.8 -16.4 80.8 -4.3 6.4 -20.4 22.4 -26.5 26.3 -21.3 13.4 -43.8 19.2 -70.7 18.3 -34.7 -1.2 -54.3 -6.7 -75.8 -21.4 -18.7 -12.7 -35.7 -31.8 -47.3 -53.1 -3.3 -6 -5 -8.2 -6.1 -7.8 -0.8 0.3 -9.6 2.6 -19.6 5.1 -31.2 7.7 -57.3 11.4 -114.7 16 -72.9 6 -112.2 6 -184.5 0.1 -61.7 -5.1 -90.5 -9.3 -120.9 -17.6 -8.1 -2.3 -14.9 -4 -15 -3.8 -0.2 0.2 -2.4 4.4 -5 9.3 -8.9 16.8 -25.1 35.7 -40.6 47.5 -13.5 10.3 -32 19.3 -45 21.9 -19.2 3.8 -47.8 5 -62 2.6z m56.2 -19.8 c30.1 -7.9 58.2 -29.9 74.5 -58.6 2.4 -4.2 4.3 -8.1 4.3 -8.8 0 -0.7 -4.8 -3.7 -10.7 -6.7 -16 -8 -28.3 -16.6 -39.3 -27.2 -17.5 -17 -26.3 -32.5 -33.2 -58.4 -5 -19.1 -5.1 -49.4 -0.1 -74 4.6 -22.8 15.5 -50 23.6 -58.8 3 -3.2 9.9 -3.1 13.2 0.3 1.4 1.3 2.5 3.2 2.5 4.1 0 0.9 -2.2 5.8 -5 10.9 -15.5 28.7 -23.2 70.9 -18.5 101.5 4.1 26.9 14.1 46.2 33.1 63.9 34.4 32.2 89.5 46.9 205.4 54.8 35.8 2.5 114.6 2.4 149.5 0 115.2 -8.1 167.4 -21.7 203.7 -52.9 17.2 -14.8 28.7 -34.6 34 -58.1 3 -13.2 3.2 -40.7 0.4 -55.7 -3.9 -21.2 -10.3 -40.6 -17.5 -52.7 -5.3 -8.9 -5.9 -12 -3.1 -15.6 1.8 -2.3 2.9 -2.7 6.9 -2.7 5.8 0 7.3 1.4 12.9 12 6.4 11.9 10.9 23.8 14.7 38.7 10.6 41.5 8.4 78.1 -6.5 109.1 -6.8 14.2 -13.5 23.4 -24.3 33.9 -10.9 10.6 -24.2 19.7 -38.9 26.7 -6 2.8 -10.8 5.7 -10.8 6.4 0 2.6 7.1 15.2 12.9 22.8 6.9 9.3 18.9 21 28.1 27.6 21.9 15.6 43.1 21.5 72.5 20.4 31.3 -1.2 50.7 -8.6 68 -26 15 -15.2 22.1 -33.7 23.2 -60.2 1.3 -31.8 -5.1 -59 -20.9 -89.4 -7.1 -13.6 -15 -25.9 -30.3 -47 -28.8 -39.7 -42.5 -63.4 -63.3 -109.5 -11.9 -26.1 -24.3 -46.5 -35.2 -57.6 -12.7 -12.9 -30.4 -24.1 -44 -27.8 -9.3 -2.6 -31 -3 -32.9 -0.7 -1.3 1.5 0 3.4 10.1 14.3 4 4.4 4.8 5.8 4.8 9.1 0 4.7 -4.4 10.2 -8.1 10.2 -1.6 0 -6.6 -4.4 -17.3 -15.3 -16.2 -16.5 -21.3 -20.7 -37.6 -31.2 -36.3 -23.5 -84.1 -39 -136 -44 -19.2 -1.9 -61.4 -1.9 -81.1 0 -58.6 5.6 -110.5 24.3 -150.4 54.3 -3.3 2.5 -13 11.6 -21.6 20.3 -10.9 11.1 -16.2 15.9 -17.8 15.9 -1.2 0 -3.6 -1.3 -5.2 -2.9 -2.3 -2.3 -2.9 -3.8 -2.9 -7 0 -3.6 0.7 -4.9 5.3 -9.9 9 -9.8 11.3 -13.2 9.6 -14.3 -2.5 -1.7 -29.7 -0.5 -35.4 1.5 -14.6 5.2 -32.3 17.1 -43.7 29.6 -10.2 11 -20.6 28.9 -36.4 62.6 -22.4 47.9 -32.6 64.9 -67.1 112.1 -22.7 31.2 -35.9 59.5 -42 89.8 -1.4 7 -1.8 13.6 -1.7 30 0 19.5 0.2 21.7 2.7 30.9 5.7 21.3 15.9 35.9 33.1 47.4 16.5 10.9 35.7 15.4 64.1 14.7 13.1 -0.3 17.8 -0.8 25.7 -2.8z"/>
  <path d="M447.2 626.2 c-16.5 -6.6 -20.4 -29.3 -7.2 -42.4 4.4 -4.4 5.1 -4.8 9.7 -4.8 8.6 0 10.9 5.5 5.2 12.6 -6 7.4 -7.3 13 -3.9 16.4 4 4 11.9 2 41.5 -10.6 7.8 -3.3 10.3 -3.9 18.2 -4.2 8.6 -0.4 9.6 -0.2 18 3.3 23.3 9.6 31.8 12.7 36.3 13.2 4.3 0.5 5.1 0.3 7.5 -2.1 3.5 -3.5 2.9 -7.1 -2.5 -14.8 -2.2 -3.1 -4 -6.8 -4 -8.1 0 -4.2 4 -6.2 11.2 -5.8 2.8 0.2 9.4 6.7 11.7 11.5 6.6 14.1 1.2 29.8 -12.1 35.6 -9.4 4 -20 1.9 -46.1 -9.2 -6.8 -2.8 -14.1 -5.2 -17 -5.5 -5.5 -0.5 -6.5 -0.2 -28.2 8.7 -19.4 8 -29.6 9.6 -38.3 6.2z"/>
  <path d="M321 569.5 c-9.1 -2.8 -16.3 -11.7 -19.5 -24 -2.3 -8.9 -2 -28.1 0.5 -37.4 2.7 -9.6 5.2 -14.3 10.7 -20.2 6.1 -6.5 11.3 -8.9 19.4 -8.9 14.7 0 25.2 11.7 29.5 33.1 4.9 24.5 -7.6 51.9 -26.4 57.5 -5.5 1.7 -8.4 1.7 -14.2 -0.1z"/>
  <path d="M688.4 569.6 c-14.9 -4.8 -24.7 -20.4 -26.9 -42.6 -1.2 -13 3.9 -30.7 11.4 -39.2 7.2 -8.3 20.4 -11.2 29.7 -6.8 5.6 2.8 13 10.8 15.9 17.4 4.7 10.6 5.7 16.9 5.3 32.1 -0.5 15.6 -2.2 22 -8.2 29.8 -6.1 8 -18.3 12.2 -27.2 9.3z"/>
 </g>
</svg>
